<?xml version="1.0" encoding="UTF-8" standalone="no"?>
<svg
   id="svg"
   version="1.1"
   width="400"
   height="400"
   viewBox="0 0 400 400"
   sodipodi:docname="logo_02.svg"
   inkscape:version="1.4 (e7c3feb100, 2024-10-09)"
   inkscape:export-filename="danger_logo_mini_invert2023.svg"
   inkscape:export-xdpi="96"
   inkscape:export-ydpi="96"
   xmlns:inkscape="http://www.inkscape.org/namespaces/inkscape"
   xmlns:sodipodi="http://sodipodi.sourceforge.net/DTD/sodipodi-0.dtd"
   xmlns="http://www.w3.org/2000/svg"
   xmlns:svg="http://www.w3.org/2000/svg">
  <defs
     id="defs1" />
  <sodipodi:namedview
     id="namedview1"
     pagecolor="#bebebe"
     bordercolor="#000000"
     borderopacity="0.31372549"
     inkscape:showpageshadow="false"
     inkscape:pageopacity="0.0"
     inkscape:pagecheckerboard="true"
     inkscape:deskcolor="#888888"
     showgrid="true"
     showguides="true"
     inkscape:zoom="4.5475"
     inkscape:cx="248.26828"
     inkscape:cy="194.94228"
     inkscape:window-width="3840"
     inkscape:window-height="2023"
     inkscape:window-x="0"
     inkscape:window-y="0"
     inkscape:window-maximized="1"
     inkscape:current-layer="layer1"
     showborder="true"
     borderlayer="true"
     inkscape:antialias-rendering="true"
     inkscape:clip-to-page="false"
     labelstyle="default">
    <sodipodi:guide
       position="60.032985,226.05827"
       orientation="0,-1"
       id="guide6"
       inkscape:locked="false" />
    <sodipodi:guide
       position="97.636064,144.91479"
       orientation="1,0"
       id="guide7"
       inkscape:locked="false" />
    <sodipodi:guide
       position="308.08136,124.90379"
       orientation="1,0"
       id="guide8"
       inkscape:locked="false" />
    <sodipodi:guide
       position="203.18857,78.064871"
       orientation="0,-1"
       id="guide9"
       inkscape:locked="false" />
    <sodipodi:guide
       position="202.74876,112.36943"
       orientation="1,0"
       id="guide10"
       inkscape:locked="false" />
    <sodipodi:guide
       position="207.36668,335.34909"
       orientation="0,-1"
       id="guide11"
       inkscape:locked="false" />
  </sodipodi:namedview>
  <g
     inkscape:groupmode="layer"
     id="layer1"
     inkscape:label="Layer 1">
    <path
       d="M 200.27539,3.2890625 C 91.476349,3.2890625 3.2890625,91.476349 3.2890625,200.27539 c 0,108.79904 88.1872865,196.98828 196.9863275,196.98828 108.79904,0 196.98828,-88.18924 196.98828,-196.98828 0,-108.799041 -88.18924,-196.9863275 -196.98828,-196.9863275 z m 1.99219,61.4667965 c 30.11886,1.67e-4 54.53499,24.41629 54.53515,54.535161 -1.6e-4,30.11886 -24.41629,54.53499 -54.53515,54.53515 -30.11887,-1.6e-4 -54.53499,-24.41629 -54.53516,-54.53515 1.7e-4,-30.118871 24.41629,-54.534994 54.53516,-54.535161 z m 82.85547,109.587891 c 0.57976,-0.076 1.17322,0.19286 1.48828,0.73047 l 20.98437,35.80664 c 0.42009,0.71681 0.18009,1.63137 -0.53711,2.05078 l -60.1582,35.17969 59.39844,34.73633 c 0.94294,0.55142 1.25738,1.75288 0.70508,2.69531 l -20.50586,34.99219 c -0.55231,0.94243 -1.75628,1.2565 -2.69922,0.70507 l -80.97461,-47.35351 -80.96094,47.3457 c -0.7172,0.41941 -1.63265,0.1797 -2.05273,-0.53711 L 98.826172,284.88867 c -0.420082,-0.7168 -0.180089,-1.63137 0.537109,-2.05078 L 158.74609,248.11133 99.417969,213.41602 c -0.942946,-0.55143 -1.257386,-1.75289 -0.705078,-2.69532 L 119.2207,175.72852 c 0.41423,-0.70683 1.19478,-1.06087 1.95703,-0.96094 0.25409,0.0333 0.5045,0.118 0.74024,0.25586 l 80.9043,47.3125 81.73632,-47.79883 c 0.1793,-0.10485 0.3712,-0.16803 0.56446,-0.19336 z"
       style="fill:#10b981"
       id="path36" />
    <path
       d="M 200.27539,2.2929688 C 90.938611,2.2929688 2.2929688,90.938611 2.2929688,200.27539 c 0,109.33678 88.6456422,197.98242 197.9824212,197.98242 109.33678,0 197.98242,-88.64564 197.98242,-197.98242 0,-109.336779 -88.64564,-197.9824213 -197.98242,-197.9824212 z m 0,0.9960937 c 108.79904,0 196.98828,88.1872865 196.98828,196.9863275 0,108.79904 -88.18924,196.98828 -196.98828,196.98828 C 91.476349,397.26367 3.2890625,309.07443 3.2890625,200.27539 3.2890625,91.476349 91.476349,3.2890625 200.27539,3.2890625 Z"
       style="fill:#10b981"
       id="path35" />
  </g>
</svg>
